<?xml version="1.0" encoding="UTF-8"?><svg id="Layer_1" xmlns="http://www.w3.org/2000/svg" viewBox="0 0 1075.71 133.37"><defs><style>.cls-1{fill:#fff;}.cls-2{fill:#ffbc00;}</style></defs><polygon class="cls-1" points="30.03 57.93 24.79 117.79 42.29 117.79 45.99 75.43 46.01 75.43 47.52 57.93 30.03 57.93"/><polygon class="cls-1" points="51.21 15.57 33.72 15.57 31.43 41.81 48.92 41.81 51.21 15.57"/><polygon class="cls-1" points="131.32 117.79 148.68 117.79 150.98 91.55 133.61 91.55 131.32 117.79"/><polygon class="cls-1" points="157.61 15.58 140.25 15.58 135.78 66.68 91.2 66.68 85.37 133.37 120.77 83.26 180.95 83.26 182.4 66.68 153.14 66.68 157.61 15.58"/><polygon class="cls-1" points="233.26 63.97 191.59 15.57 167.6 15.57 223.1 80.17 219.81 117.79 237.31 117.79 240.6 80.17 307.38 15.57 283.4 15.57 233.26 63.97"/><path class="cls-1" d="m411.89,15.57h-79.05c-13.99,0-26.37,11.38-27.6,25.38l-.8,9.1c-1.22,13.99,9.16,25.37,23.16,25.37h73.26c4.35,0,7.59,3.54,7.2,7.89l-.8,9.09c-.38,4.35-4.23,7.88-8.58,7.88h-95.28l-1.53,17.49h95.28c13.92,0,26.24-11.38,27.46-25.37l.8-9.09c1.22-14-9.1-25.39-23.02-25.39h-73.26c-4.35,0-7.57-3.53-7.19-7.88l.8-9.1c.39-4.42,4.24-8.01,8.58-8.01h163.21l-7.42,84.85h17.5l7.42-84.85h53.13l1.52-17.36h-154.78Z"/><path class="cls-1" d="m834.81,40.95c1.22-13.99-9.11-25.37-23.04-25.37h-98.64l-3.71,42.36h-117.55s1.49-16.99,1.49-16.99c.39-4.42,4.24-8.01,8.6-8.01h95.27l1.52-17.36h-95.27c-14,0-26.39,11.38-27.61,25.38l-4.5,51.46c-1.22,13.99,9.17,25.37,23.17,25.37h95.27l1.53-17.49h-95.27c-4.35,0-7.59-3.53-7.21-7.88l1.49-16.99h216.2c4.35,0,7.57,3.55,7.19,7.9l-3.02,34.46h17.36l3.02-34.47c.53-6.17-1.14-12.04-4.72-16.64,4.39-4.62,7.08-10.48,7.62-16.63l.81-9.11Zm-18.17,9.1c-.38,4.35-4.22,7.88-8.56,7.88h-81.16l2.19-25h81.14c4.34,0,7.57,3.59,7.19,8.01l-.81,9.1Z"/><polygon class="cls-1" points="707.18 83.72 704.21 117.79 721.7 117.79 724.67 83.72 707.18 83.72"/><polygon class="cls-1" points="842.46 117.79 859.95 117.79 868.89 15.57 851.4 15.57 842.46 117.79"/><path class="cls-1" d="m981.9,15.57h-73.24c-14,0-26.39,11.38-27.61,25.38l-6.72,76.83h17.49l6.72-76.83c.39-4.42,4.24-8.02,8.6-8.02h73.24c4.36,0,7.58,3.6,7.2,8.02l-1.49,16.98h-80.75l-1.53,17.49h80.75l-3.71,42.36h17.35l6.72-76.83c1.22-14-9.11-25.38-23.03-25.38Z"/><path class="cls-1" d="m1033.98,40.73h29.75c5.89,0,11.1-4.81,11.62-10.73l.32-3.69c.52-5.92-3.85-10.73-9.74-10.73h-39.12l-.69,7.89h39.12c1.53,0,2.67,1.27,2.53,2.84l-.32,3.69c-.13,1.53-1.49,2.78-3.02,2.78h-29.75c-5.92,0-11.15,4.81-11.67,10.73l-1.26,14.42h49.86l.7-7.95h-41.91l.57-6.47c.13-1.53,1.49-2.78,3.02-2.78Z"/><polygon class="cls-2" points="61.63 50.11 1.45 50.11 0 66.68 91.2 66.68 97.03 0 61.63 50.11"/></svg>