<?xml version="1.0" encoding="UTF-8"?><svg id="Layer_1" xmlns="http://www.w3.org/2000/svg" viewBox="0 0 1005.03 174.4"><defs><style>.cls-1{fill:#fff;}.cls-2{fill:#ffbc00;}</style></defs><path class="cls-1" d="m24.84,170.99h9.69l-.26,2.94h-13.3l2.42-27.67h3.61l-2.16,24.73Z"/><path class="cls-1" d="m44.95,146.26l-2.42,27.67h-3.61l2.42-27.67h3.61Z"/><path class="cls-1" d="m72.15,154.28c-.63-1.61-1.63-2.86-3.01-3.75-1.38-.89-3.03-1.33-4.96-1.33s-3.71.44-5.34,1.33c-1.63.89-2.95,2.16-3.99,3.81-1.03,1.66-1.64,3.57-1.83,5.74-.19,2.17.09,4.08.83,5.72.74,1.64,1.85,2.9,3.32,3.79,1.47.89,3.17,1.33,5.11,1.33,2.7,0,4.99-.81,6.88-2.42,1.89-1.61,3.1-3.8,3.63-6.55h-11.04l.26-2.94h14.89l-.24,2.78c-.41,2.28-1.31,4.36-2.69,6.25-1.38,1.89-3.11,3.39-5.2,4.49-2.08,1.1-4.34,1.65-6.77,1.65-2.57,0-4.86-.6-6.87-1.81-2.01-1.2-3.54-2.88-4.58-5.02-1.04-2.14-1.45-4.57-1.21-7.27s1.06-5.13,2.48-7.28c1.42-2.16,3.24-3.84,5.46-5.04,2.22-1.2,4.62-1.81,7.18-1.81,2.94,0,5.47.73,7.61,2.18,2.14,1.46,3.6,3.51,4.4,6.15h-4.33Z"/><path class="cls-1" d="m104.89,146.26l-2.42,27.67h-3.61l1.1-12.54h-14.09l-1.1,12.54h-3.61l2.42-27.67h3.61l-1.06,12.15h14.09l1.06-12.15h3.61Z"/><path class="cls-1" d="m128.87,146.26l-.26,2.94h-7.54l-2.16,24.73h-3.61l2.16-24.73h-7.58l.26-2.94h18.74Z"/><path class="cls-1" d="m153.44,173.93h-3.61l-12.6-22.03-1.93,22.03h-3.61l2.42-27.71h3.61l12.6,21.99,1.92-21.99h3.61l-2.42,27.71Z"/><path class="cls-1" d="m166.42,146.26l-2.42,27.67h-3.61l2.42-27.67h3.61Z"/><path class="cls-1" d="m192.7,173.93h-3.61l-12.6-22.03-1.93,22.03h-3.61l2.42-27.71h3.61l12.6,21.99,1.92-21.99h3.61l-2.42,27.71Z"/><path class="cls-1" d="m222.33,154.28c-.63-1.61-1.63-2.86-3.01-3.75-1.38-.89-3.03-1.33-4.96-1.33s-3.71.44-5.34,1.33c-1.63.89-2.95,2.16-3.99,3.81-1.03,1.66-1.64,3.57-1.83,5.74-.19,2.17.09,4.08.83,5.72.74,1.64,1.85,2.9,3.32,3.79,1.47.89,3.17,1.33,5.11,1.33,2.7,0,4.99-.81,6.88-2.42,1.89-1.61,3.1-3.8,3.63-6.55h-11.04l.26-2.94h14.89l-.24,2.78c-.41,2.28-1.31,4.36-2.69,6.25-1.38,1.89-3.11,3.39-5.2,4.49-2.08,1.1-4.34,1.65-6.77,1.65-2.57,0-4.86-.6-6.87-1.81-2.01-1.2-3.54-2.88-4.58-5.02-1.04-2.14-1.45-4.57-1.21-7.27.24-2.7,1.06-5.13,2.48-7.28,1.42-2.16,3.24-3.84,5.46-5.04,2.22-1.2,4.62-1.81,7.18-1.81,2.94,0,5.47.73,7.61,2.18,2.14,1.46,3.6,3.51,4.4,6.15h-4.33Z"/><path class="cls-1" d="m260.78,146.26l-.26,2.94h-12.03l-.82,9.33h9.77l-.26,2.94h-9.77l-1.09,12.46h-3.61l2.42-27.67h15.64Z"/><path class="cls-1" d="m280.41,167.77h-12.07l-2.76,6.15h-3.81l12.41-27.51h4.17l7.56,27.51h-3.81l-1.68-6.15Zm-.78-2.94l-3.78-13.97-6.22,13.97h10Z"/><path class="cls-1" d="m295,173.23c-1.39-.65-2.44-1.55-3.16-2.7-.72-1.15-1.03-2.48-.92-3.99h3.85c.02,1.3.46,2.39,1.32,3.27.86.89,2.19,1.33,3.99,1.33s3.11-.43,4.18-1.29c1.07-.86,1.66-1.96,1.78-3.31.09-1.06-.12-1.92-.65-2.58-.52-.66-1.21-1.16-2.05-1.51-.84-.34-1.99-.71-3.43-1.11-1.79-.48-3.21-.95-4.26-1.43-1.06-.48-1.93-1.22-2.62-2.24-.69-1.02-.96-2.39-.81-4.11.13-1.51.63-2.84,1.5-4.01.87-1.16,2.03-2.06,3.47-2.7,1.44-.64,3.07-.95,4.87-.95,2.59,0,4.66.65,6.2,1.94,1.54,1.3,2.32,3.02,2.35,5.16h-3.97c-.04-1.06-.52-1.99-1.42-2.8-.91-.81-2.17-1.21-3.79-1.21-1.51,0-2.77.39-3.79,1.17-1.02.78-1.59,1.87-1.72,3.27-.09,1.01.12,1.83.64,2.46.51.64,1.17,1.12,1.98,1.45.81.33,1.94.71,3.41,1.13,1.78.5,3.21,1,4.28,1.49,1.07.49,1.96,1.24,2.66,2.26.71,1.02.98,2.4.83,4.15-.12,1.35-.59,2.62-1.4,3.81s-1.96,2.16-3.43,2.9c-1.47.74-3.15,1.11-5.06,1.11s-3.43-.32-4.82-.97Z"/><path class="cls-1" d="m334.61,146.26l-.26,2.94h-7.54l-2.16,24.73h-3.61l2.16-24.73h-7.58l.26-2.94h18.74Z"/><path class="cls-1" d="m370.06,173.93l-3.29-3.65c-1.47,1.4-3.01,2.44-4.6,3.12-1.59.67-3.36,1.01-5.29,1.01s-3.56-.34-4.97-1.03c-1.41-.69-2.46-1.67-3.16-2.94-.7-1.27-.97-2.75-.82-4.45.17-1.93.87-3.63,2.09-5.1,1.23-1.47,2.95-2.63,5.17-3.47-.76-1.01-1.29-1.93-1.58-2.78-.3-.85-.4-1.77-.31-2.78.1-1.16.49-2.22,1.17-3.16.68-.94,1.59-1.67,2.75-2.2,1.16-.53,2.46-.79,3.92-.79s2.65.28,3.66.83c1.01.56,1.74,1.33,2.18,2.32.44.99.58,2.1.42,3.32h-3.61c.12-1.09-.11-1.94-.69-2.56-.58-.62-1.37-.93-2.38-.93-1.06,0-1.94.3-2.64.89-.7.6-1.09,1.36-1.17,2.28-.07.79.08,1.56.45,2.3.37.74,1.03,1.65,1.96,2.74l7.53,8.3.81-1.11,3.1-4.53h3.89l-3.75,5.64c-.52.79-1.12,1.63-1.81,2.5l5.69,6.23h-4.72Zm-8.97-3.45c1.2-.56,2.37-1.42,3.5-2.58l-7.42-8.18c-3.5,1.3-5.37,3.35-5.62,6.15-.14,1.56.31,2.86,1.35,3.89,1.03,1.03,2.45,1.55,4.25,1.55,1.43,0,2.74-.28,3.94-.83Z"/><path class="cls-1" d="m392.68,152.79c1.4-2.16,3.21-3.84,5.42-5.06,2.21-1.22,4.6-1.83,7.17-1.83,3.02,0,5.59.73,7.71,2.18,2.12,1.46,3.58,3.52,4.38,6.19h-4.33c-.62-1.67-1.61-2.95-2.98-3.85-1.36-.9-3.05-1.35-5.06-1.35s-3.71.45-5.32,1.35c-1.61.9-2.93,2.18-3.95,3.83s-1.62,3.59-1.82,5.81c-.19,2.2.08,4.12.81,5.78.73,1.65,1.82,2.93,3.28,3.83,1.46.9,3.15,1.35,5.08,1.35s3.78-.44,5.3-1.33c1.52-.89,2.74-2.16,3.65-3.83h4.33c-1.26,2.65-3.08,4.69-5.46,6.13s-5.07,2.16-8.09,2.16c-2.57,0-4.85-.6-6.85-1.81-2-1.2-3.51-2.88-4.54-5.02-1.03-2.14-1.43-4.57-1.19-7.27.24-2.7,1.06-5.13,2.46-7.28Z"/><path class="cls-1" d="m427.57,149.2l-.81,9.25h10.08l-.26,2.98h-10.08l-.83,9.53h11.27l-.26,2.98h-14.89l2.42-27.71h14.89l-.26,2.98h-11.27Z"/><path class="cls-1" d="m464.7,173.93h-3.61l-12.6-22.03-1.93,22.03h-3.61l2.42-27.71h3.61l12.6,21.99,1.92-21.99h3.61l-2.42,27.71Z"/><path class="cls-1" d="m475.58,173.23c-1.39-.65-2.44-1.55-3.16-2.7-.72-1.15-1.03-2.48-.92-3.99h3.85c.02,1.3.46,2.39,1.32,3.27.86.89,2.19,1.33,3.99,1.33s3.11-.43,4.18-1.29c1.07-.86,1.66-1.96,1.78-3.31.09-1.06-.12-1.92-.65-2.58-.52-.66-1.21-1.16-2.05-1.51-.84-.34-1.99-.71-3.43-1.11-1.79-.48-3.21-.95-4.26-1.43-1.06-.48-1.93-1.22-2.62-2.24-.69-1.02-.96-2.39-.81-4.11.13-1.51.63-2.84,1.5-4.01.87-1.16,2.03-2.06,3.47-2.7,1.44-.64,3.07-.95,4.87-.95,2.59,0,4.66.65,6.2,1.94,1.54,1.3,2.32,3.02,2.35,5.16h-3.97c-.04-1.06-.52-1.99-1.42-2.8-.91-.81-2.17-1.21-3.79-1.21-1.51,0-2.77.39-3.79,1.17-1.02.78-1.59,1.87-1.72,3.27-.09,1.01.12,1.83.64,2.46.51.64,1.17,1.12,1.98,1.45.81.33,1.94.71,3.41,1.13,1.78.5,3.21,1,4.28,1.49,1.07.49,1.96,1.24,2.66,2.26.71,1.02.98,2.4.83,4.15-.12,1.35-.59,2.62-1.4,3.81s-1.96,2.16-3.43,2.9c-1.47.74-3.15,1.11-5.06,1.11s-3.43-.32-4.82-.97Z"/><path class="cls-1" d="m501.4,172.4c-2.01-1.2-3.54-2.88-4.58-5.04-1.04-2.16-1.45-4.59-1.21-7.29.24-2.7,1.06-5.13,2.48-7.28,1.42-2.16,3.24-3.84,5.46-5.04,2.22-1.2,4.62-1.81,7.18-1.81s4.9.6,6.91,1.81c2.01,1.2,3.53,2.88,4.56,5.02,1.03,2.14,1.42,4.58,1.19,7.3-.24,2.73-1.06,5.16-2.46,7.31-1.41,2.14-3.22,3.82-5.44,5.02-2.22,1.21-4.63,1.81-7.22,1.81s-4.86-.6-6.87-1.81Zm12.48-2.68c1.63-.9,2.96-2.18,3.99-3.85,1.03-1.67,1.65-3.6,1.84-5.8.19-2.22-.08-4.16-.82-5.81-.74-1.65-1.84-2.93-3.3-3.83-1.46-.9-3.16-1.35-5.12-1.35s-3.74.45-5.36,1.35c-1.61.9-2.94,2.18-3.97,3.83-1.03,1.65-1.64,3.59-1.84,5.81-.19,2.2.08,4.13.82,5.8.74,1.67,1.85,2.95,3.31,3.85,1.47.9,3.17,1.35,5.1,1.35s3.71-.45,5.34-1.35Z"/><path class="cls-1" d="m542.31,173.93l-5.6-11.31h-4.37l-.99,11.31h-3.61l2.42-27.67h8.93c2.09,0,3.83.36,5.2,1.07,1.38.72,2.37,1.68,2.98,2.9.61,1.22.85,2.61.71,4.17-.17,1.91-.86,3.59-2.09,5.04-1.23,1.46-2.96,2.42-5.2,2.9l5.93,11.59h-4.33Zm-9.71-14.21h5.32c1.96,0,3.47-.48,4.53-1.45s1.67-2.26,1.81-3.87-.23-2.91-1.12-3.81c-.89-.9-2.32-1.35-4.31-1.35h-5.32l-.92,10.48Z"/><path class="cls-1" d="m556.6,173.23c-1.39-.65-2.44-1.55-3.16-2.7-.72-1.15-1.03-2.48-.92-3.99h3.85c.02,1.3.46,2.39,1.32,3.27.86.89,2.19,1.33,3.99,1.33s3.11-.43,4.18-1.29c1.07-.86,1.66-1.96,1.78-3.31.09-1.06-.12-1.92-.65-2.58-.52-.66-1.21-1.16-2.05-1.51-.84-.34-1.99-.71-3.43-1.11-1.79-.48-3.21-.95-4.26-1.43-1.06-.48-1.93-1.22-2.62-2.24-.69-1.02-.96-2.39-.81-4.11.13-1.51.63-2.84,1.5-4.01.87-1.16,2.03-2.06,3.47-2.7,1.44-.64,3.07-.95,4.87-.95,2.59,0,4.66.65,6.2,1.94,1.54,1.3,2.32,3.02,2.35,5.16h-3.97c-.04-1.06-.52-1.99-1.42-2.8-.91-.81-2.17-1.21-3.79-1.21-1.51,0-2.77.39-3.79,1.17-1.02.78-1.59,1.87-1.72,3.27-.09,1.01.12,1.83.64,2.46.51.64,1.17,1.12,1.98,1.45.81.33,1.94.71,3.41,1.13,1.78.5,3.21,1,4.28,1.49,1.07.49,1.96,1.24,2.66,2.26.71,1.02.98,2.4.83,4.15-.12,1.35-.59,2.62-1.4,3.81-.82,1.19-1.96,2.16-3.43,2.9-1.47.74-3.15,1.11-5.06,1.11s-3.43-.32-4.82-.97Z"/><path class="cls-1" d="m600.5,146.26l-2.42,27.67h-3.61l1.1-12.54h-14.09l-1.1,12.54h-3.61l2.42-27.67h3.61l-1.06,12.15h14.09l1.06-12.15h3.61Z"/><path class="cls-1" d="m611.06,146.26l-2.42,27.67h-3.61l2.42-27.67h3.61Z"/><path class="cls-1" d="m632.94,160.09c-1.71,1.52-4.18,2.28-7.4,2.28h-5.32l-1.01,11.55h-3.61l2.42-27.67h8.93c3.12,0,5.43.76,6.93,2.26,1.5,1.51,2.14,3.45,1.93,5.84s-1.16,4.22-2.86,5.74Zm-2.58-2.01c1.03-.87,1.61-2.12,1.76-3.73.3-3.41-1.51-5.12-5.43-5.12h-5.32l-.89,10.16h5.32c2.01,0,3.53-.44,4.56-1.31Z"/><path class="cls-1" d="m665.33,173.93l-5.6-11.31h-4.37l-.99,11.31h-3.61l2.42-27.67h8.93c2.09,0,3.83.36,5.2,1.07,1.38.72,2.37,1.68,2.98,2.9.61,1.22.85,2.61.71,4.17-.17,1.91-.86,3.59-2.09,5.04s-2.96,2.42-5.2,2.9l5.93,11.59h-4.33Zm-9.71-14.21h5.32c1.96,0,3.47-.48,4.53-1.45,1.06-.97,1.67-2.26,1.81-3.87s-.23-2.91-1.12-3.81c-.89-.9-2.32-1.35-4.31-1.35h-5.32l-.92,10.48Z"/><path class="cls-1" d="m681.46,149.2l-.81,9.25h10.08l-.26,2.98h-10.08l-.83,9.53h11.27l-.26,2.98h-14.89l2.42-27.71h14.89l-.26,2.98h-11.27Z"/><path class="cls-1" d="m700.78,173.23c-1.39-.65-2.44-1.55-3.16-2.7-.72-1.15-1.03-2.48-.92-3.99h3.85c.02,1.3.46,2.39,1.32,3.27.86.89,2.19,1.33,3.99,1.33s3.11-.43,4.18-1.29c1.07-.86,1.66-1.96,1.78-3.31.09-1.06-.12-1.92-.65-2.58-.52-.66-1.21-1.16-2.05-1.51-.84-.34-1.99-.71-3.43-1.11-1.79-.48-3.21-.95-4.26-1.43-1.06-.48-1.93-1.22-2.62-2.24-.69-1.02-.96-2.39-.81-4.11.13-1.51.63-2.84,1.5-4.01.87-1.16,2.03-2.06,3.47-2.7,1.44-.64,3.07-.95,4.87-.95,2.59,0,4.66.65,6.2,1.94,1.54,1.3,2.32,3.02,2.35,5.16h-3.97c-.04-1.06-.52-1.99-1.42-2.8-.91-.81-2.17-1.21-3.79-1.21-1.51,0-2.77.39-3.79,1.17-1.02.78-1.59,1.87-1.72,3.27-.09,1.01.12,1.83.64,2.46.51.64,1.17,1.12,1.98,1.45.81.33,1.94.71,3.41,1.13,1.78.5,3.21,1,4.28,1.49,1.07.49,1.96,1.24,2.66,2.26.71,1.02.98,2.4.83,4.15-.12,1.35-.59,2.62-1.4,3.81-.82,1.19-1.96,2.16-3.43,2.9-1.47.74-3.15,1.11-5.06,1.11s-3.43-.32-4.82-.97Z"/><path class="cls-1" d="m726.98,146.26l-2.42,27.67h-3.61l2.42-27.67h3.61Z"/><path class="cls-1" d="m735.43,173.23c-1.39-.65-2.44-1.55-3.16-2.7-.72-1.15-1.03-2.48-.92-3.99h3.85c.02,1.3.46,2.39,1.32,3.27.86.89,2.19,1.33,3.99,1.33s3.11-.43,4.18-1.29c1.07-.86,1.66-1.96,1.78-3.31.09-1.06-.12-1.92-.65-2.58-.52-.66-1.21-1.16-2.05-1.51-.84-.34-1.99-.71-3.43-1.11-1.79-.48-3.21-.95-4.26-1.43-1.06-.48-1.93-1.22-2.62-2.24-.69-1.02-.96-2.39-.81-4.11.13-1.51.63-2.84,1.5-4.01.87-1.16,2.03-2.06,3.47-2.7,1.44-.64,3.07-.95,4.87-.95,2.59,0,4.66.65,6.2,1.94,1.54,1.3,2.32,3.02,2.35,5.16h-3.97c-.04-1.06-.52-1.99-1.42-2.8-.91-.81-2.17-1.21-3.79-1.21-1.51,0-2.77.39-3.79,1.17-1.02.78-1.59,1.87-1.72,3.27-.09,1.01.12,1.83.64,2.46.51.64,1.17,1.12,1.98,1.45.81.33,1.94.71,3.41,1.13,1.78.5,3.21,1,4.28,1.49,1.07.49,1.96,1.24,2.66,2.26.71,1.02.98,2.4.83,4.15-.12,1.35-.59,2.62-1.4,3.81-.82,1.19-1.96,2.16-3.43,2.9-1.47.74-3.15,1.11-5.06,1.11s-3.43-.32-4.82-.97Z"/><path class="cls-1" d="m775.05,146.26l-.26,2.94h-7.54l-2.16,24.73h-3.61l2.16-24.73h-7.58l.26-2.94h18.74Z"/><path class="cls-1" d="m794.76,167.77h-12.07l-2.76,6.15h-3.81l12.41-27.51h4.17l7.56,27.51h-3.81l-1.68-6.15Zm-.78-2.94l-3.78-13.97-6.22,13.97h10Z"/><path class="cls-1" d="m827.17,173.93h-3.61l-12.6-22.03-1.93,22.03h-3.61l2.42-27.71h3.61l12.6,21.99,1.92-21.99h3.61l-2.42,27.71Z"/><path class="cls-1" d="m853.57,146.26l-.26,2.94h-7.54l-2.16,24.73h-3.61l2.16-24.73h-7.58l.26-2.94h18.74Z"/><path class="cls-1" d="m885.13,160.09c-1.71,1.52-4.18,2.28-7.4,2.28h-5.32l-1.01,11.55h-3.61l2.42-27.67h8.93c3.12,0,5.43.76,6.93,2.26,1.5,1.51,2.14,3.45,1.93,5.84-.2,2.3-1.16,4.22-2.86,5.74Zm-2.58-2.01c1.03-.87,1.61-2.12,1.76-3.73.3-3.41-1.51-5.12-5.43-5.12h-5.32l-.89,10.16h5.32c2.01,0,3.53-.44,4.56-1.31Z"/><path class="cls-1" d="m906.13,173.93l-5.6-11.31h-4.37l-.99,11.31h-3.61l2.42-27.67h8.93c2.09,0,3.83.36,5.2,1.07,1.38.72,2.37,1.68,2.98,2.9.61,1.22.85,2.61.71,4.17-.17,1.91-.86,3.59-2.09,5.04-1.23,1.46-2.96,2.42-5.2,2.9l5.93,11.59h-4.33Zm-9.71-14.21h5.32c1.96,0,3.47-.48,4.53-1.45,1.06-.97,1.67-2.26,1.81-3.87s-.23-2.91-1.12-3.81c-.89-.9-2.32-1.35-4.31-1.35h-5.32l-.92,10.48Z"/><path class="cls-1" d="m922.14,172.4c-2.01-1.2-3.54-2.88-4.58-5.04-1.04-2.16-1.45-4.59-1.21-7.29.24-2.7,1.06-5.13,2.48-7.28,1.42-2.16,3.24-3.84,5.46-5.04,2.22-1.2,4.62-1.81,7.18-1.81s4.9.6,6.91,1.81c2.01,1.2,3.53,2.88,4.56,5.02,1.03,2.14,1.42,4.58,1.19,7.3-.24,2.73-1.06,5.16-2.46,7.31-1.41,2.14-3.22,3.82-5.44,5.02-2.22,1.21-4.63,1.81-7.22,1.81s-4.86-.6-6.87-1.81Zm12.48-2.68c1.63-.9,2.96-2.18,3.99-3.85,1.03-1.67,1.65-3.6,1.84-5.8.19-2.22-.08-4.16-.82-5.81-.74-1.65-1.84-2.93-3.3-3.83-1.46-.9-3.16-1.35-5.12-1.35s-3.74.45-5.36,1.35c-1.61.9-2.94,2.18-3.97,3.83-1.03,1.65-1.64,3.59-1.84,5.81-.19,2.2.08,4.13.82,5.8.74,1.67,1.85,2.95,3.31,3.85,1.47.9,3.17,1.35,5.1,1.35s3.71-.45,5.34-1.35Z"/><path class="cls-1" d="m961.01,160.11l7.29,13.81h-4.09l-5.68-10.8-7.26,10.8h-4.01l9.66-13.81-7.28-13.85h4.05l5.72,10.84,7.3-10.84h4.05l-9.75,13.85Z"/><path class="cls-1" d="m995.72,146.26l-10.52,17.23-.91,10.44h-3.61l.91-10.44-7.54-17.23h4.01l5.6,14.01,8.05-14.01h4.01Z"/><polygon class="cls-1" points="30.03 57.93 24.79 117.79 42.29 117.79 45.99 75.43 46.01 75.43 47.52 57.93 30.03 57.93"/><polygon class="cls-1" points="51.21 15.57 33.72 15.57 31.43 41.81 48.92 41.81 51.21 15.57"/><polygon class="cls-1" points="131.32 117.79 148.68 117.79 150.98 91.55 133.61 91.55 131.32 117.79"/><polygon class="cls-1" points="157.61 15.58 140.25 15.58 135.78 66.68 91.2 66.68 85.37 133.37 120.77 83.26 180.95 83.26 182.4 66.68 153.14 66.68 157.61 15.58"/><polygon class="cls-1" points="233.26 63.97 191.59 15.57 167.6 15.57 223.1 80.17 219.81 117.79 237.31 117.79 240.6 80.17 307.38 15.57 283.4 15.57 233.26 63.97"/><path class="cls-1" d="m411.89,15.57h-79.05c-13.99,0-26.37,11.38-27.6,25.38l-.8,9.1c-1.22,13.99,9.16,25.37,23.16,25.37h73.26c4.35,0,7.59,3.54,7.2,7.89l-.8,9.09c-.38,4.35-4.23,7.88-8.58,7.88h-95.28l-1.53,17.49h95.28c13.92,0,26.24-11.38,27.46-25.37l.8-9.09c1.22-14-9.1-25.39-23.02-25.39h-73.26c-4.35,0-7.57-3.53-7.19-7.88l.8-9.1c.39-4.42,4.24-8.01,8.58-8.01h163.21l-7.42,84.85h17.5l7.42-84.85h53.13l1.52-17.36h-154.78Z"/><path class="cls-1" d="m834.81,40.95c1.22-13.99-9.11-25.37-23.04-25.37h-98.64l-3.71,42.36h-117.55s1.49-16.99,1.49-16.99c.39-4.42,4.24-8.01,8.6-8.01h95.27l1.52-17.36h-95.27c-14,0-26.39,11.38-27.61,25.38l-4.5,51.46c-1.22,13.99,9.17,25.37,23.17,25.37h95.27l1.53-17.49h-95.27c-4.35,0-7.59-3.53-7.21-7.88l1.49-16.99h216.2c4.35,0,7.57,3.55,7.19,7.9l-3.02,34.46h17.36l3.02-34.47c.53-6.17-1.14-12.04-4.72-16.64,4.39-4.62,7.08-10.48,7.62-16.63l.81-9.11Zm-18.17,9.1c-.38,4.35-4.22,7.88-8.56,7.88h-81.16l2.19-25h81.14c4.34,0,7.57,3.59,7.19,8.01l-.81,9.1Z"/><polygon class="cls-1" points="707.18 83.72 704.21 117.79 721.7 117.79 724.67 83.72 707.18 83.72"/><polygon class="cls-1" points="842.46 117.79 859.95 117.79 868.89 15.57 851.4 15.57 842.46 117.79"/><path class="cls-1" d="m981.9,15.57h-73.24c-14,0-26.39,11.38-27.61,25.38l-6.72,76.83h17.49l6.72-76.83c.39-4.42,4.24-8.02,8.6-8.02h73.24c4.36,0,7.58,3.6,7.2,8.02l-1.49,16.98h-80.75l-1.53,17.49h80.75l-3.71,42.36h17.35l6.72-76.83c1.22-14-9.11-25.38-23.03-25.38Z"/><polygon class="cls-2" points="61.63 50.11 1.45 50.11 0 66.68 91.2 66.68 97.03 0 61.63 50.11"/></svg>