<?xml version="1.0" encoding="UTF-8"?><svg id="Layer_1" xmlns="http://www.w3.org/2000/svg" viewBox="0 0 442.19 323.31"><defs><style>.cls-1{fill:#fff;}</style></defs><polygon class="cls-1" points="72.8 140.45 60.1 285.55 102.51 285.55 111.5 182.86 111.54 182.86 115.21 140.45 72.8 140.45"/><polygon class="cls-1" points="124.16 37.75 81.76 37.75 76.19 101.36 118.59 101.36 124.16 37.75"/><polygon class="cls-1" points="318.36 285.56 360.44 285.56 366.01 221.95 323.9 221.95 318.36 285.56"/><polygon class="cls-1" points="382.09 37.76 340 37.76 329.16 161.66 221.09 161.66 206.95 323.31 292.78 201.84 438.67 201.84 442.19 161.66 371.25 161.66 382.09 37.76"/><polygon class="cls-1" points="149.41 121.47 3.52 121.47 0 161.66 221.09 161.66 235.23 0 149.41 121.47"/></svg>